<?xml version="1.0" encoding="utf-8"?>
<!-- Generator: Adobe Illustrator 27.1.1, SVG Export Plug-In . SVG Version: 6.00 Build 0)  -->
<svg version="1.0" id="Layer_1" xmlns="http://www.w3.org/2000/svg" xmlns:xlink="http://www.w3.org/1999/xlink" x="0px" y="0px"
	 viewBox="0 0 824.4 211" style="enable-background:new 0 0 824.4 211;" xml:space="preserve">
<style type="text/css">
	.st0{fill:none;stroke:#231F20;stroke-linecap:round;stroke-miterlimit:10;}
</style>
<path class="st0" d="M702,185.1c-2.8-11.9-0.5-17.9,2.1-21.2c6.2-7.8,17.7-5,21.4-12.9c2-4.4,0.6-9.9-2.2-13.1
	c-4.7-5.4-13.5-4.9-19-2c-1.1,0.5-4.9,2.7-7.8,8.2c-6.2,11.9-2.1,28,3.7,38.2c14.1,24.8,45.3,27.8,48.7,28.1
	c30.5,2.5,51-17.4,54.3-20.8c16.1-16.2,19.7-35.7,20.5-45.4c1.3-15.1-2.4-26.9-4.6-32.6c-8.4-22-24.9-33.3-30.5-36.7
	c-18.2-11.3-37.2-11.3-43.6-11.3c-49.4-0.1-488.3-0.7-739.4,0c-2.7,0-3.8,0.9-4.3,1.5C-1,67.9,1.7,75.4,7.1,78.1
	c0.6,0.3,3.8,1.8,7.5,0.7c4.8-1.5,5.3-5.9,10-10c2.2-1.9,5.9-4.3,12.1-5.4"/>
<path class="st0" d="M811.5,179.4c2-6.7,4.9-20,0.1-34.7c-1.7-5.3-6.5-16.8-25.9-31.6c-7.3-5.6-25.1-17.9-76.8-31.6
	c-29.5-7.8-52.1-11.3-57.2-12.1c-30.7-4.6-58.4-6-81.8-5.9"/>
<path class="st0" d="M704.1,63.6c-5.1,0.5-8.8,3.1-9.2,6.1c-0.3,2.1,1.1,4.1,2.2,5.5c2.5,3.4,5.9,4.7,7.5,5.3"/>
<path class="st0" d="M626,63.6c25.6,0.6,46.6-1.7,61.7-4.2c24.1-4,32.1-8.1,37.5-15c5.6-7.2,11-21,4.2-32.2
	c-4.6-7.7-13.7-12-22.4-11.6c-0.8,0-14.5,0.9-18.7,10.8c-1.6,3.8-2.3,10,1.3,14c0.7,0.7,3.7,3.9,8,3.2c2.5-0.4,5.5-2.1,6.4-5.1
	c0.1-0.3,0.9-3-0.6-5.5c-2.3-3.8-7.2-2.6-8.5-5.6c-1.2-2.8,1.8-6.4,2.4-7.1c3.4-4.1,8.4-4.5,9.6-4.5"/>
</svg>
