<?xml version="1.0" encoding="utf-8"?>
<!-- Generator: Adobe Illustrator 27.1.1, SVG Export Plug-In . SVG Version: 6.00 Build 0)  -->
<svg version="1.1" id="Layer_1" xmlns="http://www.w3.org/2000/svg" xmlns:xlink="http://www.w3.org/1999/xlink" x="0px" y="0px"
	 viewBox="0 0 1181.5 915.4" style="enable-background:new 0 0 1181.5 915.4;" xml:space="preserve">
<style type="text/css">
	.st0{fill:#FFFFFF;stroke:#5F00C4;stroke-width:3;stroke-miterlimit:10;}
	.st1{fill:#5F00C4;}
	.st2{fill:#FFFFFF;}
	.st3{fill:none;}
</style>
<rect x="170.5" y="8.7" class="st0" width="840.6" height="898"/>
<g>
	<path class="st1" d="M168.4,130.8c1.1-1.2,3.2-3.4,6.4-6.2c4.7-4.1,11.6-9.4,20.4-13.6c8.8-4.2,19.4-7.3,31.6-7.4h0.2
		c12.1,0,22.4,3.1,30.6,6.8c8.2,3.7,14.2,8.1,17.8,10.7c7.4,5.4,13.3,12.1,19.7,21.4c6.4,9.3,13.3,21.4,22.3,37.4
		c8.1,14.4,14.2,26.6,18.4,35.2c0.6,1.2,2.1,1.8,3.3,1.2c1.2-0.6,1.8-2.1,1.2-3.3c-4.2-8.7-10.4-21-18.5-35.5
		c-9-16-15.9-28.2-22.5-37.8s-13-16.8-20.9-22.6c-3.6-2.6-10-7.3-18.7-11.2C251,102,240,98.7,227,98.7h-0.3
		c-17.4,0.1-31.8,6-42.3,12.6c-5.3,3.3-9.6,6.7-12.9,9.6c-3.3,2.9-5.6,5.3-6.7,6.6c-0.9,1-0.9,2.6,0.2,3.5
		C165.9,131.9,167.5,131.8,168.4,130.8L168.4,130.8z"/>
	<path class="st1" d="M222.1,193.1c2.1-10.8,7-25.7,19.4-36.5c4.8-4.2,7-4.5,31.5-15.6c29.6-13.4,36.4-17.5,43.2-23.8
		c7.8-7.2,12.5-14.7,15.3-19.7c1.7,5.1,8.2,26.4-2.1,50c-2.3,5.3-11.9,25.5-32.7,34.4c-11.2,4.8-16.6,2.4-45.3,6.2
		C238.9,189.7,228.7,191.7,222.1,193.1z"/>
	<path class="st1" d="M198.3,200.2c4.8-5.2,20.9-24.1,22.2-53c0.1-3.1,1.1-35.7-22.2-60.1c-16.4-17.2-30.6-15.4-58.5-29.3
		c-16.6-8.2-39.2-22.5-62.5-49.1c-2.3,16.2-4,40.8,1.6,69.6C85,110,91.1,141.7,116.1,159c15.7,10.8,27.8,8.4,62,28.2
		C186.8,192.4,193.8,197.1,198.3,200.2z"/>
	<path class="st1" d="M1020.9,781.5c-1.1,1.2-3.2,3.4-6.4,6.2c-4.7,4.1-11.6,9.4-20.4,13.6c-8.8,4.2-19.4,7.3-31.6,7.4h-0.2
		c-12.1,0-22.4-3.1-30.6-6.8c-8.2-3.7-14.2-8.1-17.8-10.7c-7.4-5.4-13.3-12.1-19.7-21.4c-6.4-9.3-13.3-21.4-22.3-37.4
		c-8.1-14.4-14.2-26.6-18.4-35.2c-0.6-1.2-2.1-1.8-3.3-1.2s-1.8,2.1-1.2,3.3c4.2,8.7,10.4,21,18.5,35.5c9,16,15.9,28.2,22.5,37.8
		s13,16.8,20.9,22.6c3.6,2.6,10,7.3,18.7,11.2s19.7,7.2,32.7,7.2h0.3c17.4-0.1,31.8-6,42.3-12.6c5.3-3.3,9.6-6.7,12.9-9.6
		c3.3-2.9,5.6-5.3,6.7-6.6c0.9-1,0.9-2.6-0.2-3.5C1023.4,780.4,1021.8,780.5,1020.9,781.5L1020.9,781.5z"/>
	<path class="st1" d="M967.2,719.2c-2.1,10.8-7,25.7-19.4,36.5c-4.8,4.2-7,4.5-31.5,15.6c-29.6,13.4-36.4,17.5-43.2,23.8
		c-7.8,7.2-12.5,14.7-15.3,19.7c-1.7-5.1-8.2-26.4,2.1-50c2.3-5.3,11.9-25.5,32.7-34.4c11.2-4.8,16.6-2.4,45.3-6.2
		C950.4,722.6,960.7,720.6,967.2,719.2z"/>
	<path class="st1" d="M991,712.1c-4.8,5.2-20.9,24.1-22.2,53c-0.1,3.1-1.1,35.7,22.2,60.1c16.4,17.2,30.6,15.4,58.5,29.3
		c16.6,8.2,39.2,22.5,62.5,49.1c2.3-16.2,4-40.8-1.6-69.6c-6.1-31.7-12.2-63.4-37.2-80.7c-15.7-10.8-27.8-8.4-62-28.2
		C1002.5,719.9,995.5,715.2,991,712.1z"/>
	<rect x="92" y="254.9" class="st1" width="1022.2" height="466"/>
	<rect x="77.2" y="192.1" class="st2" width="1022.2" height="506.2"/>
	<polygon class="st1" points="1099.5,698.3 1099.5,696.3 79.2,696.3 79.2,194.1 1097.5,194.1 1097.5,698.3 1099.5,698.3 
		1099.5,696.3 1099.5,698.3 1101.5,698.3 1101.5,190.1 75.2,190.1 75.2,700.3 1101.5,700.3 1101.5,698.3 	"/>
	<line class="st3" x1="77.2" y1="245.2" x2="1099.5" y2="245.2"/>
	<polyline class="st1" points="77.2,245.7 1099.5,245.7 1099.5,244.7 77.2,244.7 	"/>
	<path class="st1" d="M444.5,309.4l-0.6,4.1c5.3,1.9,9.5,4.6,12.7,8.1c3.1,3.5,6.1,8.6,9,15.2l23.9,55.9h3.1l21.2-59.9l25.8,59.9
		h2.8l19.9-57.1c1.9-5.5,4.4-9.9,7.5-13.1s7.7-6.2,13.7-9l-0.6-4.1c-6.8,0.7-13.5,1-20.2,1c-3,0-8.1-0.3-15-1l-0.6,4.1
		c7.6,1.4,11.4,5.2,11.4,11.5c0,2.5-0.5,5.2-1.6,8.3L545,368l-25.8-59.9h-3.1l-20.9,60.2l-14.6-34.1c-2-4.7-3-8.6-3-11.5
		c0-5,2.8-8.1,8.4-9.1l-0.6-4.1c-8.2,0.7-14.5,1-18.9,1C460.2,310.4,452.9,310.1,444.5,309.4z M382.4,338.8c0.5-5,1.7-9.5,3.6-13.6
		c1.9-4,4.4-7.1,7.4-9.1c3.5-2.4,7.2-3.5,10.9-3.5c3.7,0,7.2,1.1,10.4,3.3c3.2,2.2,5.8,5.3,7.7,9.4c1.9,4,2.9,8.6,2.9,13.7
		L382.4,338.8z M446.1,365.8l-2.7-1.6c-3.2,4.9-7.3,8.7-12.2,11.2c-4.9,2.6-10.1,3.8-15.5,3.8c-5.1,0-10-1.1-14.6-3.3
		c-4.6-2.2-8.5-5.3-11.5-9.4c-4.6-6.2-7.1-13.5-7.4-21.8l59.6,0.1c0.5-8.7-0.8-15.8-4-21.4c-3.1-5.6-7.5-9.7-13-12.3
		c-5.5-2.6-11.6-3.9-18.1-3.9c-7.5,0-14.1,1.9-19.9,5.7c-5.8,3.8-10.3,8.9-13.5,15.4s-4.8,13.7-4.8,21.5c0,8.1,1.8,15.4,5.3,21.9
		s8.3,11.7,14.4,15.4c6,3.7,12.6,5.6,19.7,5.6c9.9,0,18.2-2.5,24.8-7.4C439.3,380.5,443.8,373.9,446.1,365.8z M239.5,387.4l0.6,4.1
		c3.5-0.3,6.6-0.5,9.1-0.7s5-0.3,7.6-0.3c5.4,0,12.6,0.3,21.5,1l0.6-4.1c-4.9-1.9-8.7-3.8-11.2-5.8c-2.6-2-4.3-4.4-5.2-7.2
		c-0.9-2.8-1.4-6.3-1.4-10.8v-63l78.5,92.6l4.6-2.7v-83.2c0-6.4,1-11.3,3.1-14.7s6-6.4,11.8-9.1l-0.6-4.1c-6.8,0.7-12.5,1-17.3,1
		c-5.8,0-12.5-0.3-20.2-1l-0.6,4.1c4.9,1.8,8.7,3.7,11.2,5.7c2.6,2,4.3,4.4,5.2,7.2c0.9,2.8,1.4,6.4,1.4,10.8v59.1l-73.9-87.2
		c-4.5,0.8-8.1,1.2-10.8,1.2c-2.1,0-6.5-0.3-13.4-1l-0.6,4.1c4.1,1.9,7.3,3.9,9.4,6.1c2.2,2.2,3.7,5.1,4.7,8.8
		c1,3.6,1.5,8.6,1.5,14.8v50.3c0,6.3-1.1,11.2-3.4,14.6C249.5,381.7,245.4,384.8,239.5,387.4z"/>
	<path class="st1" d="M486.3,480.4c-0.3-2.6-0.4-5-0.4-7.2c0-7.5,1.5-13.7,4.6-18.8c3-5.1,7.2-7.9,12.4-8.6c1.4-0.2,2.5-0.3,3.2-0.3
		c7,0,13.1,3,18.3,9.1s8.6,14.2,10,24.2c0.4,2.8,0.6,5.7,0.6,8.9c0,8.7-1.7,15.6-5.1,20.9c-3.4,5.3-8,8-13.8,8
		c-4.8,0-9.3-1.5-13.6-4.6c-4.2-3-7.8-7.3-10.6-12.8C489,493.8,487.1,487.5,486.3,480.4z M513.7,522.8c7.2,0,13.7-1.9,19.5-5.7
		s10.4-8.9,13.7-15.4s4.9-13.7,4.9-21.5c0-7.9-1.7-15.1-5.2-21.7s-8.2-11.8-14.2-15.6c-6-3.8-12.6-5.7-19.8-5.7
		c-12.3,0-21.3,4.2-27.1,12.5v-15.2c0-13,2-24.5,6-34.5l-2.7-2.2c-3.9,4.6-8.3,8.2-13,10.8c-4.7,2.6-10.7,4.5-18,5.7v4
		c5.1,0,8.8,1.9,11,5.7c2.2,3.8,3.3,8.8,3.3,15v40c0,8.5-0.2,15.8-0.7,22.1c-0.4,6.3-1.1,12.8-2,19.5h5l9.3-12.8
		C490,517.8,499.9,522.8,513.7,522.8z M390.5,468.8c0.5-5,1.7-9.5,3.6-13.6c1.9-4,4.4-7.1,7.4-9.1c3.5-2.4,7.2-3.5,10.9-3.5
		c3.7,0,7.2,1.1,10.4,3.3c3.2,2.2,5.8,5.3,7.7,9.4c1.9,4,2.9,8.6,2.9,13.7L390.5,468.8z M454.2,495.8l-2.7-1.6
		c-3.2,4.9-7.3,8.7-12.2,11.2c-4.9,2.6-10.1,3.8-15.5,3.8c-5.1,0-10-1.1-14.6-3.3c-4.6-2.2-8.5-5.3-11.5-9.4
		c-4.6-6.2-7.1-13.5-7.4-21.8l59.6,0.1c0.5-8.7-0.8-15.8-4-21.4c-3.1-5.6-7.5-9.7-13-12.3c-5.5-2.6-11.6-3.9-18.1-3.9
		c-7.5,0-14.1,1.9-19.9,5.7c-5.8,3.8-10.3,8.9-13.5,15.4s-4.8,13.7-4.8,21.5c0,8.1,1.8,15.4,5.3,21.9s8.3,11.7,14.4,15.4
		c6,3.7,12.6,5.6,19.7,5.6c9.9,0,18.2-2.5,24.8-7.4C447.4,510.5,451.9,503.9,454.2,495.8z M236.7,437.1l31.4,85.7h3.5l30.1-89.7
		l32,89.7h3.5l26.1-80.1c2.8-8.5,6.3-15,10.5-19.8s9.9-7.7,16.7-8.9l-0.6-4.3c-9.8,0.6-18,0.9-24.5,0.9c-5.7,0-13.7-0.3-23.9-0.9
		l-0.7,4.3c12.5,1.8,18.7,7.4,18.7,16.8c0,2.6-0.6,5.9-1.9,10l-18,55l-31.1-87.5h-4.9L274,496.5l-22-60.3c-1.1-3-1.6-5.7-1.6-8
		c0-4,1.6-7.2,4.9-9.5c3.2-2.3,8.1-3.9,14.5-4.6l-0.4-4.3c-8.9,0.6-18.7,0.9-29.2,0.9c-6.6,0-16.1-0.3-28.5-0.9l-0.7,4.3
		c7.1,1.6,12.6,4.2,16.4,7.9C231.2,425.6,234.3,430.7,236.7,437.1z"/>
	<path class="st1" d="M982.6,598.8c0.5-5,1.7-9.5,3.6-13.6c1.9-4,4.4-7.1,7.4-9.1c3.5-2.4,7.2-3.5,10.9-3.5s7.2,1.1,10.4,3.3
		s5.8,5.3,7.7,9.4c1.9,4,2.9,8.6,2.9,13.7L982.6,598.8z M1046.3,625.8l-2.7-1.6c-3.2,4.9-7.3,8.7-12.2,11.2
		c-4.9,2.6-10.1,3.8-15.5,3.8c-5.1,0-10-1.1-14.6-3.3s-8.5-5.3-11.5-9.4c-4.6-6.2-7.1-13.5-7.4-21.8l59.6,0.1
		c0.5-8.7-0.8-15.8-4-21.4c-3.1-5.6-7.5-9.7-13-12.3s-11.6-3.9-18.1-3.9c-7.5,0-14.1,1.9-19.9,5.7c-5.8,3.8-10.3,8.9-13.5,15.4
		s-4.8,13.7-4.8,21.5c0,8.1,1.8,15.4,5.3,21.9s8.3,11.7,14.4,15.4s12.6,5.6,19.7,5.6c9.9,0,18.2-2.5,24.8-7.4
		C1039.5,640.5,1044,634,1046.3,625.8z M870.2,569.5l-0.6,4.1c5.3,1.9,9.7,4.6,13.1,8.2c3.4,3.6,6.6,8.6,9.7,15.1l26.8,55.9h3.1
		l26-57.1c2.6-5.7,5.3-10.2,8.3-13.3c3-3.2,7.3-6.1,12.9-8.8l-0.6-4.1c-6.8,0.7-13.5,1-20.2,1c-3,0-8.1-0.3-15-1l-0.6,4.1
		c3.9,0.7,6.9,2,8.9,4.1c2,2,3,4.5,3,7.4c0,2.5-0.7,5.2-2.1,8.3l-17.4,38.2l-17.8-37.3c-2.5-5.1-3.7-9.2-3.7-12.4
		c0-4.4,2.6-7.2,7.8-8.3l-0.6-4.1c-8.2,0.7-14.5,1-18.9,1C885.9,570.5,878.6,570.1,870.2,569.5z M826.5,647.5l0.6,4.1
		c8.4-0.7,15.4-1,21.1-1c7.1,0,14,0.3,20.8,1l0.6-4.1c-5.7-2-9.6-4.5-11.7-7.5c-2.1-3-3.2-7.5-3.2-13.3v-24.8v-10.2
		c0-8.4,0.5-16,1.6-22.9l-4.1-1c-5.8,7.5-14.2,12.9-25.1,16.2v3.5c9.5,0.8,14.3,7.4,14.3,19.8v19.3c0,5.8-1.1,10.3-3.2,13.3
		C836.1,643.1,832.2,645.6,826.5,647.5z M846,554.1c2.9,0,5.3-1,7.4-3c2.1-2,3.1-4.4,3.1-7.3c0-2.9-1-5.3-3.1-7.3s-4.5-3-7.4-3
		s-5.3,1-7.3,3s-3,4.5-3,7.3c0,2.9,1,5.3,3,7.3S843.2,554.1,846,554.1z M784.8,652.8c6.4,0,12.6-2.3,18.7-7
		c6.1-4.7,11.1-11.2,14.9-19.7l-3.2-1.9c-3.6,5.5-7.3,9.8-11.1,12.8c-3.7,3-7.9,4.5-12.5,4.5c-6.1,0-10.6-2-13.6-6.1
		s-4.5-10.4-4.5-19.1c0-18.1,0.1-30.9,0.3-38.4l36.3,1.9l6-8.3l-1.3-2.1l-40.9,1.6c0.4-9.2,0.8-16.5,1.2-21.7l-3.5-0.6
		c-3.3,7.5-6.8,12.9-10.5,16.4c-3.6,3.4-8.7,5.9-15.2,7.4v4c3.7,0.3,6.6,1.1,8.7,2.5c2.1,1.4,3.5,3.6,4.4,6.6
		c0.8,3,1.3,7.3,1.3,12.8v22.1c0,11.3,2,19.5,6,24.6C770.2,650.2,776.4,652.8,784.8,652.8z M701.3,652.8c5,0,10.1-1.2,15.1-3.5
		c5.1-2.4,9.5-5.6,13.3-9.7c3.8-4.1,6.5-8.7,8-13.7l-2.7-1.6c-3.1,4.9-7,8.7-11.5,11.2c-4.5,2.6-9.3,3.8-14.3,3.8
		c-4.6,0-9.1-1.1-13.3-3.3c-4.3-2.2-7.9-5.3-11-9.4c-2.7-3.6-4.7-7.7-6-12.1c-1.4-4.4-2.1-8.9-2.1-13.4c0-5.6,1-10.6,3-15.1
		s4.7-7.7,8.3-9.8c3.1-1.9,6.7-2.8,10.6-2.8c6.1,0,11.8,2.5,17.2,7.5s9.6,12.5,12.6,22.6l3.2-0.3c0.3-10.4,1.6-20.7,4-30.7l-1.9-1.5
		c-2.5,0.9-4.7,1.3-6.8,1.3c-1.5,0-3.1-0.2-4.9-0.7c-1.8-0.4-3.5-0.9-5.3-1.4c-2.8-1-5.3-1.7-7.6-2.2s-4.9-0.7-7.9-0.7
		c-7.5,0-14.1,1.9-19.9,5.7c-5.8,3.8-10.3,8.9-13.5,15.4s-4.8,13.7-4.8,21.5c0,8.2,1.6,15.5,4.8,22.1c3.2,6.5,7.7,11.7,13.5,15.3
		C687.2,651,693.8,652.8,701.3,652.8z M589.1,598.8c0.5-5,1.7-9.5,3.6-13.6c1.9-4,4.4-7.1,7.4-9.1c3.5-2.4,7.2-3.5,10.9-3.5
		s7.2,1.1,10.4,3.3s5.8,5.3,7.7,9.4c1.9,4,2.9,8.6,2.9,13.7L589.1,598.8z M652.8,625.8l-2.7-1.6c-3.2,4.9-7.3,8.7-12.2,11.2
		c-4.9,2.6-10.1,3.8-15.5,3.8c-5.1,0-10-1.1-14.6-3.3s-8.5-5.3-11.5-9.4c-4.6-6.2-7.1-13.5-7.4-21.8l59.6,0.1
		c0.5-8.7-0.8-15.8-4-21.4c-3.1-5.6-7.5-9.7-13-12.3s-11.6-3.9-18.1-3.9c-7.5,0-14.1,1.9-19.9,5.7c-5.8,3.8-10.3,8.9-13.5,15.4
		s-4.8,13.7-4.8,21.5c0,8.1,1.8,15.4,5.3,21.9s8.3,11.7,14.4,15.4c6,3.7,12.6,5.6,19.7,5.6c9.9,0,18.2-2.5,24.8-7.4
		C645.9,640.5,650.4,634,652.8,625.8z M522.5,647.5l0.6,4.1c8.4-0.7,15.4-1,21.1-1c7.1,0,14,0.3,20.8,1l0.6-4.1
		c-5.7-2-9.6-4.5-11.7-7.5c-2.1-3-3.2-7.5-3.2-13.3v-62.1c0-13,2-24.5,6-34.5l-2.7-2.2c-3.9,4.6-8.3,8.2-13,10.8s-10.7,4.5-18,5.7v4
		c5.1,0,8.8,1.9,11,5.7s3.3,8.8,3.3,15v57.7c0,5.8-1.1,10.3-3.2,13.3C532.1,643.1,528.2,645.6,522.5,647.5z M463.2,647.5l0.6,4.1
		c8.4-0.7,15.4-1,21.1-1c7.1,0,14,0.3,20.8,1l0.6-4.1c-5.7-2-9.6-4.5-11.7-7.5s-3.2-7.5-3.2-13.3v-62.1c0-13,2-24.5,6-34.5l-2.7-2.2
		c-3.9,4.6-8.3,8.2-13,10.8s-10.7,4.5-18,5.7v4c5.1,0,8.8,1.9,11,5.7s3.3,8.8,3.3,15v57.7c0,5.8-1.1,10.3-3.2,13.3
		C472.8,643.1,468.9,645.6,463.2,647.5z M386.1,618.9c-2.3-5.9-3.4-11.8-3.4-17.8c0-6.2,1.3-11.6,3.8-16.2c2.5-4.6,6-7.6,10.4-9.2
		c1.8-0.7,3.8-1,6.2-1c6,0,11.8,2.4,17.6,7.1c5.7,4.7,10.1,11.1,13.1,19.2c2.4,6.3,3.5,12.3,3.5,18c0,6.4-1.3,11.9-3.8,16.4
		c-2.6,4.6-6.1,7.6-10.6,9.2c-1.8,0.7-3.8,1-6.2,1c-5.9,0-11.7-2.4-17.3-7.2C393.6,633.6,389.2,627.1,386.1,618.9z M410,652.8
		c7.6,0,14.6-1.9,21.1-5.8c6.5-3.8,11.6-9,15.4-15.6s5.7-13.8,5.7-21.5c0-8.1-1.9-15.3-5.7-21.8c-3.8-6.5-8.9-11.6-15.3-15.3
		s-13.5-5.5-21.2-5.5s-14.7,1.9-21.2,5.8c-6.4,3.8-11.6,9-15.3,15.5c-3.8,6.5-5.7,13.6-5.7,21.4c0,8.1,1.9,15.4,5.7,21.9
		c3.8,6.5,8.9,11.7,15.3,15.4C395.3,650.9,402.3,652.8,410,652.8z M359.7,607.4l-3.5-0.6c-4,11.5-9.2,19.9-15.4,25.1
		c-6.2,5.3-14.8,7.9-25.6,7.9c-8.3,0-15.9-2.2-22.8-6.6c-6.9-4.4-12.4-10.4-16.4-18s-6-16-6-25.1c0-8.6,1.6-16.3,4.9-23.2
		s7.8-12.4,13.5-16.4s12-6,19-6c9.5,0,17.6,2.9,24.3,8.6c6.7,5.8,11.7,14.6,15,26.5l3.7-0.4c-0.2-5.7,0.2-11.7,1.2-18
		s2.4-12.3,4.1-18l-2.7-1.8c-2.6,1.5-5.5,2.2-8.9,2.2c-3,0-7.6-0.7-13.9-2.2c-8.1-2-14.8-3-20.2-3c-9.8,0-19,2.6-27.5,7.7
		c-8.5,5.2-15.3,12.1-20.4,20.9c-5.1,8.8-7.7,18.2-7.7,28.5c0,10.5,2.5,20.2,7.4,28.9c4.9,8.8,11.6,15.7,20.1,20.7
		c8.5,5.1,17.9,7.6,28.1,7.6c13.5,0,24.4-4,32.7-12C351.2,632.8,356.8,621.6,359.7,607.4z"/>
	<path class="st1" d="M202.4,342.9c3.5,5.6,10.5,8.6,16.9,7.3c5-1.1,9.1-4.4,12.2-8.4c5.3-7.1,8.2-16.7,8.4-25.7
		c-0.2-27.7-26.9-53.8-55.1-50.1c-18.8,2.4-33.6,16.8-43.5,32.2c-6.7,10.5-11.3,22.3-11.6,34.8c-0.4,10.8,1.8,22,4.4,32.6
		c2,7.6,4.6,15.2,7.8,22.3c8.3,20.7,29.6,45.9,42.9,63.9c36,49.7,88.9,118.7,47.6,179.9c-5.4,8.4-12.1,15.8-19.1,22.8
		c-2.2,2.5-4.5,4.9-6.4,7.8c-2.5,3.6-8.1,0.3-5.8-3.7c0.4-0.6,0.9-1,1.4-1.2c2.9-1.5,5.6-3.4,8-5.6c7-6.6,13.1-14.3,18.2-22.3
		c27.2-41.9,6.4-86.7-18.2-124.1c-10.6-16.3-22.1-31.9-33.8-47.5c-8.3-11.3-28.1-36-34.6-48.1c-8.9-15.2-15.3-32-18.4-49.4
		c-3.1-15.7-3.9-32.7,2-48c7.4-18.8,20.9-36.1,38.7-46c18.8-10.6,41.6-8,58.2,5.5c16,12.7,26.3,34.2,21.7,54.6
		c-2.9,14.4-10.8,27-25.7,31.3c-7.6,2.4-15.5,2.4-23.5,2.8l-2,0.1c-6.4,0.3-11.9-4.6-12.2-11C180.5,337.7,196.1,332.9,202.4,342.9z"
		/>
	<path class="st1" d="M1138.1,602.5c5.8-6.4,10.9-13.6,15.1-21c27-47.9,11.5-111.1-31.9-143.8c-24.3-18-55.8-25.2-85.7-22
		c-20.1,2.1-38.3,11.9-57.7,17.2l-0.4-1.6c2.2-0.7,2.2-4.2-0.4-4.7c-1.5-0.2-2.9-0.5-4.4-0.8c5.5-1.4,10.9-3.1,16.3-5
		c14.7-5.4,29.8-11.6,45.7-13.3c31.9-3.3,65.6,4.7,91,24.7l4.6,3.9c1.5,1.1,3,2.9,4.4,4.1c2.8,2.7,5.6,5.9,8.2,8.8
		c22.8,27.7,33,65.6,25.6,100.8l-0.6,2.9c-0.5,2-1.8,6.5-2.3,8.6c-1.2,3.1-2.7,8.1-4.2,11.1c-4.7,10.8-11.2,21-18.9,29.9
		c-0.7,0.8-1.3,1.5-2,2.2L1138.1,602.5z"/>
	<path class="st1" d="M1138.1,602.5l2.2,2c-10.2,11-21.6,20.2-33.7,29.3c-1.8,1.4-4.4,1-5.7-0.8c-1.7-2.2-0.6-5.5,2-6.3
		C1116.6,622,1128.4,613.2,1138.1,602.5z"/>
	<path class="st1" d="M977.1,426.6c2.6,0.5,2.6,4,0.4,4.7c-0.3,0.1-0.7,0.2-1.2,0.1c-5.2-0.8-10.3-1.9-15.3-3.2
		c3.9-0.6,7.9-1.4,11.7-2.4C974.2,426,975.6,426.3,977.1,426.6z"/>
	<path class="st1" d="M909.4,396.5c0.9,2.1-1.7,3.9-3.3,2.6c-0.2-0.2-0.4-0.4-0.6-0.8c-1.8-3.6-3.4-7.3-4.7-11.1
		c2.5,2.5,5.1,5,7.8,7.3C908.9,395.2,909.1,395.9,909.4,396.5z"/>
	<path class="st1" d="M922.6,411.6c-5.9-3.5-11.7-7.5-17-11.9l0.5-0.6c1.6,1.3,4.2-0.5,3.3-2.6c-0.3-0.7-0.6-1.3-0.8-2
		c5.3,4.5,11,8.6,17,12.1c14.5,9,30.4,15.6,47.2,19c-3.9,1-7.8,1.8-11.7,2.4C947.5,424.5,934.6,418.8,922.6,411.6z"/>
	<path class="st1" d="M905.5,398.3c0.2,0.3,0.4,0.6,0.6,0.8l-0.5,0.6c-5.8-4.8-11.2-10.2-15.9-16.1c0.6,0.2,1.3,0.4,2,0.6
		c1.1,0.3,2.3-0.2,2.7-1.3c0.2-0.7,0.1-1.4-0.2-1.9l0.7-0.6c1.9,2.4,4,4.7,6.1,6.9C902.1,391.1,903.7,394.8,905.5,398.3z"/>
	<path class="st1" d="M900.8,387.3c-5.1-15.1-5.8-31.9,0-46.9c4.8-12.2,11.7-22.7,16.4-34.8c15.6-38.7,15.5-70.3-7.5-106
		c-10.2-15.8-22.7-30.3-37.6-41.8c-6.8-6-12.5-13.4-16.5-21.5c0-4.2-0.1-8.3-0.3-12.4h0.1c4.1,11.5,11.2,21.7,20.6,29.3
		c25.2,18.5,48,47.7,56.7,78.1c9.2,32.3-1.6,66.5-17.1,94.9c-6.2,11-11.9,21.7-12.7,34.4c-0.8,9.1,0.5,18.5,3.2,27.3
		c0.7,2.3,1.5,4.6,2.4,6.8C905.9,392.2,903.3,389.8,900.8,387.3z"/>
	<path class="st1" d="M894.1,380.9c0.4,0.5,0.5,1.3,0.2,1.9c-0.4,1.1-1.6,1.7-2.7,1.3c-0.7-0.2-1.3-0.4-2-0.6
		c-1.8-2.2-3.5-4.5-5-6.8c2.8,1.2,5.5,2.3,8.4,3.3C893.4,380.3,893.8,380.6,894.1,380.9z"/>
	<path class="st1" d="M880.3,356.3c3.6,8.7,8.5,16.8,14.4,24.1L894,381c-0.2-0.4-0.6-0.6-1-0.8c-2.8-1-5.6-2.1-8.4-3.3
		c-1.2-1.7-2.2-3.4-3.3-5.2c-13-20.9-15.3-45.7-15.7-69.6c-0.6-14.3,0.3-28.7,2.6-42.8c0.2-1.4,1.5-2.3,2.9-2.1
		c1.4,0.2,2.3,1.5,2.1,2.9c-2.7,18.5-2.4,37.3-1.2,55.9C872.9,329.7,874.9,343.5,880.3,356.3z"/>
	<path class="st1" d="M855.2,123.8c0.2,4.1,0.3,8.3,0.3,12.4c-1.9-3.8-3.4-7.7-4.5-11.7L855.2,123.8z"/>
	<path class="st1" d="M855.1,123.2c0.1,0.2,0.1,0.4,0.2,0.5h-0.1l-4.2,0.7h-0.1c0-0.2,0-0.4,0-0.6c0-1.2,1-2.2,2.2-2.2
		C854,121.7,854.8,122.4,855.1,123.2z"/>
	<path class="st2" d="M860.8,363c-18.9-14.4-36.2-33.8-40.1-57.9c-1.9-11.6,0.3-23.6,2.8-35.7c2.3-10.5,4.8-21.1,7.7-31.5
		c3.8-13.4,8.9-26.2,13.7-39.5c7.2-19.9,10.5-41.1,10.6-62.2c4,8.1,9.7,15.5,16.5,21.5c14.9,11.6,27.4,26,37.6,41.8
		c23,35.7,23.2,67.3,7.5,106c-4.7,12.1-11.5,22.5-16.4,34.8c-5.8,15.1-5.1,31.8,0,46.9c-2.1-2.2-4.2-4.5-6.1-6.9
		c-5.9-7.3-10.8-15.3-14.4-24.1c-5.4-12.8-7.4-26.6-8.3-40.4c-1.2-18.6-1.5-37.4,1.2-55.9c0.2-1.4-0.8-2.6-2.1-2.9
		c-1.4-0.2-2.7,0.7-2.9,2.1c-2.2,14.1-3.1,28.5-2.6,42.8c0.4,23.9,2.7,48.7,15.7,69.6c1,1.8,2.1,3.5,3.3,5.2
		C876.2,373.1,868.2,368.5,860.8,363z"/>
	<path class="st1" d="M838.4,196.1c8.8-22.8,12.3-47.2,12.5-71.6h0.1c1.1,4,2.7,8,4.5,11.7c-0.1,21.1-3.4,42.3-10.6,62.2
		c-4.8,13.3-9.9,26.1-13.7,39.5c-2.9,10.4-5.4,21-7.7,31.5c-2.6,12-4.7,24.1-2.8,35.7c3.9,24.1,21.2,43.5,40.1,57.9
		c7.3,5.5,15.4,10.1,23.8,13.8c1.6,2.3,3.3,4.6,5,6.8c-20.5-6.6-39-19.1-53.7-34.9c-11-11.9-19.5-26.4-22.3-42.5
		c-3.2-19.2,2.7-38.1,6.8-56.7c1.4-5.9,3.2-12.4,5-18.2C829.2,219.4,834.1,207.7,838.4,196.1z"/>
	<path class="st1" d="M821.4,399.5c39.3,16.2,80.2,32.1,123.2,30.3c5.5-0.2,11-0.8,16.4-1.7c5.1,1.4,10.2,2.5,15.3,3.2
		c0.5,0.1,0.9,0,1.2-0.1l0.4,1.6c-3,0.8-6.1,1.6-9.2,2.1c-51.8,10.3-102-9.3-149.3-29.8c0.5-0.1,1-0.2,1.5-0.4
		c2.8-0.8,2.2-4.2,0.2-4.9L821.4,399.5z"/>
	<path class="st1" d="M821.2,400c2,0.7,2.6,4.1-0.2,4.9c-0.5,0.1-1,0.2-1.5,0.4l0,0c-2.8-1.2-5.6-2.4-8.4-3.6c2.9-0.5,5.9-1,8.8-1.7
		C820.3,399.8,820.8,399.8,821.2,400z"/>
	<path class="st1" d="M777.8,203.8c2,0.1,3.5,1.8,3.3,3.8c-0.1,2.6-3.1,4.2-5.3,2.9c-3.8-2-7.8-3.5-11.8-4.8c-1.4-0.4-2.7-0.8-4.1-1
		c-1.2-0.2-2-1.4-1.8-2.6c0.2-1.4,1.8-2.2,3.1-1.7C766.6,202.3,772.2,203.3,777.8,203.8z"/>
	<path class="st1" d="M758.4,162.8c3.2-4.7,9.5,1,5.2,4.7c-3.7,2.8-7.1,6-10.3,9.3c-1,1.1-2.1,2.3-3,3.5c-0.8,1-2.2,1.2-3.2,0.4
		s-1.2-2.2-0.4-3.2c1.2-1.2,2.4-2.4,3.4-3.6C753.2,170.5,756,166.9,758.4,162.8z"/>
	<path class="st1" d="M760.7,375.2c0.7-0.7,0.7-1.9,0-2.6s-1.4-1.4-2.1-2.1c6.9,3.8,13.8,7.4,20.8,10.8c9.9,4.9,21.7,9.8,32,14.1
		c3.3,1.4,6.7,2.8,10,4.1l-0.2,0.5c-0.4-0.1-0.9-0.2-1.4-0.1c-2.9,0.6-5.8,1.2-8.8,1.7c-4.3-1.9-8.5-3.7-12.7-5.5
		c-13.7-6-27.2-12.7-40.3-20l0.3-0.6C759.1,375.9,760.1,375.8,760.7,375.2z"/>
	<path class="st1" d="M755.4,230.5c3.3,4.6-4.2,8.6-6.2,3.3c-1.4-4.5-3.2-8.7-5.2-12.8c-0.7-1.4-1.4-2.7-2.3-4
		c-0.7-1-0.4-2.5,0.7-3.1c1.1-0.7,2.5-0.4,3.1,0.7c0.7,1.5,1.4,3,2.2,4.5C750,223,752.5,226.9,755.4,230.5z"/>
	<path class="st1" d="M751.4,369c-1.9-1.9-3.8-3.8-5.6-5.8c4.2,2.5,8.5,4.9,12.8,7.2c0.7,0.7,1.4,1.4,2.1,2.1c0.7,0.7,0.7,1.9,0,2.6
		c-0.6,0.6-1.6,0.7-2.3,0.3c-0.1-0.1-0.2-0.1-0.3-0.2C755.8,373.2,753.6,371.2,751.4,369z"/>
	<path class="st1" d="M731.7,173.2c0.3,1.2-0.4,2.4-1.6,2.8c-1.2,0.3-2.4-0.4-2.8-1.6c-0.2-1.6-0.3-3.1-0.6-4.6
		c-0.8-4.2-1.8-8.3-3.4-12.3c-0.7-1.8,0.2-3.9,2-4.7c2.4-1,5.1,1,4.9,3.5c-0.2,4.3,0.1,8.5,0.7,12.8
		C731.1,170.4,731.4,171.8,731.7,173.2z"/>
	<path class="st1" d="M730.4,203.4c-4.3,5.9-8,12.1-11.1,18.7c-6.2,13.1-9.8,27.4-10.5,41.8c-0.3,6.5,0,13,0.9,19.4
		c-0.4-0.8-0.7-1.4-0.9-1.8c-1.8-3.4-3.7-6.6-5.7-9.9c0-25.3,8.7-50.6,24.2-70.7c0.7-0.9,1.9-1,2.8-0.4
		C730.8,201.3,731,202.5,730.4,203.4z"/>
	<path class="st1" d="M714,183.8c0.8,0.9,0.8,2.4-0.2,3.2c-0.9,0.8-2.4,0.8-3.2-0.2c-0.9-1.4-1.8-2.8-2.9-4.1
		c-2.9-3.7-5.9-7.1-9.3-10.3c-4-4.1,2.8-9.2,5.6-4.2c2,4.2,4.5,8.1,7.2,11.9C712,181.5,713,182.7,714,183.8z"/>
	<path class="st1" d="M710,285.5c0.4,3.5-4.1,4.6-5.5,2c-0.2-0.3-0.3-0.7-0.4-1.2c-0.7-4.9-1-9.8-1-14.7c2,3.2,3.9,6.5,5.7,9.9
		c0.2,0.4,0.6,1.1,0.9,1.8C709.7,284.1,709.8,284.8,710,285.5z"/>
	<path class="st1" d="M704.4,287.5c1.5,2.6,6,1.5,5.5-2c-0.1-0.7-0.2-1.4-0.3-2.1c0.8,1.5,1.7,3.4,2.2,4.4c0.6,1.4,2.3,4.9,2.9,6.3
		c2.8,6.3,5.2,12.9,7.4,19.2c4.1,11.2,9.4,21.7,16,31.7c5.9,9.2,12.9,17.7,20.5,25.6c-4.3-2.4-8.5-4.8-12.8-7.2
		c-8.6-9.4-16-19.7-22.1-30.8c-6.7-11.9-10.4-25.3-16.3-37.5c-1-2.2-2.3-4.7-3.5-7.1L704.4,287.5z"/>
	<path class="st1" d="M701.3,283c-11.6-20.7-27.1-39.2-44.3-55.5c-4.3-4-9-7.5-13.9-11.1c-14.6-10.8-28.8-22.3-42.5-34.2
		c-7.5-6.7-15-13.3-22.5-20.1c-0.6-2-1.2-3.9-1.9-5.8l0.2-0.2c9.2,7.3,18.3,14.8,27.5,22.2c9.4,7.5,18.9,14.9,28.6,22.1
		c9.7,7.4,19.9,13.8,29.2,21.9c15.9,14.5,30,31,41.3,49.3c0,4.9,0.3,9.8,1,14.7c0.1,0.4,0.2,0.8,0.4,1.2l-0.5,0.3
		C703,286.1,702.2,284.4,701.3,283z"/>
	<path class="st1" d="M657.8,292.9c25.1,28.2,55.5,51.2,88,70.3c1.8,2,3.7,3.9,5.6,5.8c2.2,2.1,4.4,4.2,6.7,6.2
		c0.1,0.1,0.2,0.1,0.3,0.2l-0.3,0.6c-24.6-13.7-47.9-29.5-69.8-47.2c-12.2-9.8-24.1-20-36.1-30.3c-1.7-1.4-1.9-4-0.5-5.7
		C653.3,291,656.3,291,657.8,292.9z"/>
	<path class="st2" d="M745.9,363.2c-32.6-19.1-62.9-42.2-88-70.3c-1.6-1.8-4.5-1.8-6.1,0c-1.4,1.7-1.2,4.2,0.5,5.7
		c12,10.2,23.9,20.5,36.1,30.3c21.8,17.7,45.2,33.5,69.8,47.2c13.1,7.3,26.5,14,40.3,20c4.2,1.8,8.4,3.7,12.7,5.5
		c-18.3,3.1-37.1,3.6-55.5,1.3c-39.3-4.8-78.6-20.4-105.7-49.9c-8.5-8.7-13.8-19.7-18.4-30.9c-4.6-11-8.9-23.6-12.9-35
		c-14-41.4-27.1-83.3-40.4-125c7.5,6.7,15,13.4,22.5,20.1c13.8,11.8,27.9,23.4,42.5,34.2c4.9,3.6,9.6,7.1,13.9,11.1
		c17.2,16.3,32.7,34.8,44.3,55.5c0.8,1.5,1.7,3.1,2.6,4.7c1.3,2.4,2.5,4.9,3.5,7.1c5.9,12.2,9.6,25.6,16.3,37.5
		C729.9,343.5,737.3,353.8,745.9,363.2z"/>
	<path class="st1" d="M649.8,352.9c27.1,29.6,66.5,45.1,105.7,49.9c18.5,2.3,37.2,1.8,55.5-1.3c2.8,1.2,5.6,2.4,8.4,3.6
		c-62.6,15-140.4-2.8-181.6-54.5c-4.6-6-8-12.9-11.1-19.8c-4.2-9.6-7.9-19.6-11.4-29.4c-16.3-47.1-30.3-94.9-42.1-143.3l0.3-0.1
		c1.5,1.4,3,2.8,4.6,4.1c13.2,41.7,26.4,83.6,40.4,125c4,11.4,8.3,23.9,12.9,35C635.9,333.3,641.3,344.3,649.8,352.9z"/>
	<path class="st1" d="M576.2,156.3c0.6,1.9,1.2,3.9,1.9,5.8c-1.5-1.4-3-2.7-4.6-4.1L576.2,156.3z"/>
	<path class="st1" d="M573,157.2c-0.2-0.9,0.3-1.8,1.2-2.1c0.5-0.1,1.1,0,1.5,0.3c0.2,0.2,0.5,0.4,0.7,0.6l-0.2,0.2l-2.7,1.7
		l-0.3,0.1C573.1,157.8,573,157.5,573,157.2z"/>
</g>
</svg>
