<?xml version="1.0" encoding="utf-8"?>
<!-- Generator: Adobe Illustrator 27.1.1, SVG Export Plug-In . SVG Version: 6.00 Build 0)  -->
<svg version="1.1" id="Layer_1" xmlns="http://www.w3.org/2000/svg" xmlns:xlink="http://www.w3.org/1999/xlink" x="0px" y="0px"
	 viewBox="0 0 24 24" style="enable-background:new 0 0 24 24;" xml:space="preserve">
<style type="text/css">
	.st0{fill:none;}
	.st1{fill:#D7C7FF;}
</style>
<path class="st0" d="M0,0h24v24H0V0z"/>
<path class="st1" d="M10,7c0,3.9,3.1,7,7,7c1.9,0,3.7-0.8,5-2.1V12c0,5.5-4.5,10-10,10S2,17.5,2,12S6.5,2,12,2h0.1
	C10.8,3.3,10,5.1,10,7z M4,12c0,4.4,3.6,8,8,8c3,0,5.7-1.6,7.1-4.2c-4.8,1.1-9.7-1.9-10.8-6.7c-0.3-1.4-0.3-2.8,0-4.1
	C5.6,6.3,4,9,4,12z"/>
</svg>
