<?xml version="1.0" encoding="utf-8"?>
<!-- Generator: Adobe Illustrator 27.1.1, SVG Export Plug-In . SVG Version: 6.00 Build 0)  -->
<svg version="1.1" id="Layer_1" xmlns="http://www.w3.org/2000/svg" xmlns:xlink="http://www.w3.org/1999/xlink" x="0px" y="0px"
	 viewBox="0 0 462 159.7" style="enable-background:new 0 0 462 159.7;" xml:space="preserve">
<style type="text/css">
	.st0{fill:#EDEDED;}
	.st1{fill:none;stroke:#D7C7FF;stroke-width:2;stroke-linecap:round;stroke-miterlimit:10;}
	.st2{fill:#D7C7FF;}
</style>
<path class="st0" d="M228.4,86.2c2.1-3.3,3.1-8.1,3.1-14.1V46.2c0-16.8-6.4-25.3-19.3-25.3c-6.1,0-11.1,1.6-15.2,4.9
	c-4.1,3.3-8.3,8-12.6,14.2v5.6V72c0,6.2,1.1,10.9,3.4,14.1c2.2,3.2,6.4,5.9,12.5,8l-0.6,4.4c-7.2-0.7-14.6-1.1-22.1-1.1
	c-6.1,0-13.5,0.4-22.4,1.1l-0.6-4.4c6.1-2,10.2-4.6,12.5-7.9c2.2-3.3,3.4-8,3.4-14.2V51.6c0-13.2-5.1-20.2-15.2-21v-3.8
	c11.6-3.6,20.5-9.3,26.7-17.3l4.4,1.1c-1.2,7.4-1.7,15-1.7,22.6c4.2-7.6,9.5-13.6,16-17.9s12.8-6.4,19-6.4
	c17.5,0,26.2,12.2,26.2,36.7v26.5c0,6.2,1.1,10.9,3.4,14.1c2.2,3.2,6.4,5.9,12.5,8l-0.6,4.4c-7.2-0.7-14.6-1.1-22.1-1.1
	c-6.5,0-13.4,0.4-20.9,1.1l-0.6-4.4C222.6,92.3,226.3,89.6,228.4,86.2z"/>
<path class="st0" d="M267.1,12.4c4.7,0,11.4-0.4,20.1-1.1l0.6,4.4c-6,1.2-8.9,4.4-8.9,9.7c0,3.1,1,7.2,3.1,12.2l15.5,36.2l22.3-64
	h3.3l27.5,63.7l12.7-36.9c1.2-3.2,1.7-6.2,1.7-8.8c0-6.7-4-10.8-12.1-12.2l0.6-4.4c7.4,0.7,12.8,1.1,16,1.1c7.1,0,14.3-0.4,21.5-1.1
	l0.6,4.4c-6.4,2.9-11.2,6.1-14.6,9.6s-6,8.1-8,14l-21.2,60.7h-3l-27.5-63.7l-22.6,63.7h-3.3L266,40.4c-3-7-6.2-12.4-9.6-16.2
	c-3.3-3.8-7.8-6.6-13.5-8.6l0.6-4.4C252.6,12,260.4,12.4,267.1,12.4z"/>
<path class="st0" d="M398.9,94c-6.2-3.9-11-9.4-14.4-16.3c-3.4-7-5.1-14.8-5.1-23.5c0-8.4,1.7-16,5.1-22.9s8.2-12.4,14.4-16.4
	c6.2-4,13.2-6,21.2-6c3.1,0,5.9,0.3,8.4,0.8s5.2,1.3,8.1,2.4c1.9,0.5,3.8,1,5.6,1.5c1.9,0.5,3.6,0.7,5.2,0.7c2.2,0,4.6-0.5,7.2-1.4
	l2,1.6c-2.5,10.7-3.9,21.5-4.2,32.6l-3.5,0.3c-3.2-10.7-7.7-18.7-13.4-24c-5.7-5.3-11.8-8-18.3-8c-4.2,0-8,1-11.3,3
	c-3.8,2.2-6.7,5.7-8.8,10.4c-2.1,4.8-3.1,10.1-3.1,16.1c0,4.8,0.7,9.6,2.2,14.3s3.6,9,6.4,12.9c3.2,4.3,7.1,7.6,11.7,10
	c4.5,2.4,9.3,3.5,14.2,3.5c5.3,0,10.4-1.4,15.2-4.1c4.8-2.7,8.9-6.7,12.2-11.9l2.8,1.7c-1.6,5.3-4.4,10.2-8.5,14.6
	s-8.8,7.8-14.2,10.4c-5.4,2.5-10.7,3.8-16.1,3.8C412.1,99.9,405.1,97.9,398.9,94z"/>
<g>
	<path class="st1" d="M430.4,111.4c6.3,0.1,9.7,2.1,11.6,3.9c3.2,2.9,3.8,6.4,7.5,7.5c2.7,0.8,5.1-0.3,5.6-0.5c4-2,6.1-7.7,4.3-9.8
		c-0.3-0.4-1.1-1.1-3.2-1.1c-188.5,0.5-358.7,0.1-395.9,0c-4.9,0-19.1,0-32.8-8.5c-4.2-2.6-16.5-11-22.9-27.6
		C3,71,0.2,62.1,1.2,50.8c0.6-7.2,3.3-21.9,15.4-34.1c2.5-2.5,17.9-17.5,40.8-15.6c2.5,0.2,26,2.5,36.5,21.1
		c4.3,7.7,7.5,19.8,2.8,28.7c-2.2,4.1-5.1,5.7-5.8,6.1c-4.1,2.1-10.7,2.6-14.3-1.5c-2.1-2.4-3.1-6.6-1.6-9.9c2.7-6,11.4-3.8,16-9.7
		c1.9-2.4,3.7-6.9,1.6-15.9"/>
	<path class="st1" d="M10.4,24.3c-1.5,5-3.7,15-0.1,26.1c1.3,4,4.9,12.6,19.4,23.7c5.5,4.2,18.8,13.5,57.7,23.8
		c21.8,5.8,38.6,8.4,42.9,9.1c23,3.5,43.8,4.6,61.4,4.6"/>
	<path class="st1" d="M91,111.3c3.8-0.4,6.6-2.3,6.9-4.6c0.2-1.6-0.9-3.1-1.6-4.1c-1.9-2.5-4.5-3.6-5.6-3.9"/>
	<path class="st1" d="M149.6,111.3c-19.2-0.5-35,1.3-46.3,3.2c-18.1,3-24.1,6.1-28.1,11.3c-4.2,5.4-8.3,15.8-3.2,24.2
		c3.5,5.7,10.3,9,16.8,8.7c0.6,0,10.9-0.7,14.1-8.1c1.2-2.8,1.7-7.5-1-10.5c-0.5-0.6-2.8-2.9-6-2.4c-1.9,0.3-4.1,1.6-4.8,3.9
		c-0.1,0.2-0.7,2.3,0.4,4.2c1.7,2.9,5.4,1.9,6.4,4.2c0.9,2.1-1.3,4.8-1.8,5.3c-2.5,3.1-6.3,3.3-7.2,3.4"/>
</g>
<g>
	<path class="st2" d="M184.1,150.7l-10.2-25.5c0,0.4,0.1,1.2,0.1,2.4c0.1,1.2,0.2,2.5,0.2,4c0.1,1.5,0.1,3,0.1,4.5v14.5H171v-29h4.9
		l10.4,25.6c0-0.4-0.1-1.2-0.1-2.2s-0.2-2.4-0.2-3.9c-0.1-1.5-0.1-3.2-0.1-4.9v-14.5h3.4v29L184.1,150.7L184.1,150.7z"/>
	<path class="st2" d="M205.4,128.1c3.1,0,5.5,1,7.1,3.1s2.4,4.9,2.4,8.4c0,2.3-0.4,4.3-1.1,6c-0.7,1.7-1.8,3.1-3.2,4.1
		s-3.2,1.5-5.2,1.5c-3.1,0-5.5-1.1-7.1-3.2c-1.6-2.1-2.4-4.9-2.4-8.4c0-2.3,0.4-4.3,1.1-6c0.7-1.7,1.8-3.1,3.2-4.1
		C201.6,128.6,203.3,128.1,205.4,128.1z M205.4,131c-1.9,0-3.3,0.7-4.3,2.1c-1,1.4-1.5,3.6-1.5,6.6c0,2.9,0.5,5.1,1.4,6.5
		c1,1.4,2.4,2.1,4.3,2.1c1.9,0,3.3-0.7,4.3-2.1c1-1.4,1.4-3.6,1.4-6.5s-0.5-5.1-1.4-6.5S207.3,131,205.4,131z"/>
	<path class="st2" d="M239.8,149.6c-0.8,0.5-1.7,0.9-2.8,1.2s-2.1,0.4-3.2,0.4c-2.4,0-4.2-0.6-5.5-1.9c-1.3-1.2-1.9-2.9-1.9-4.8
		v-13.2h-5.1v-2.7h5.1v-5l3.5-0.4v5.5h7.7l-0.4,2.7H230v13.2c0,1.2,0.3,2.2,1,2.8s1.7,1,3.3,1c0.8,0,1.6-0.1,2.3-0.3s1.4-0.4,2-0.8
		L239.8,149.6z"/>
	<path class="st2" d="M250.3,140.9c0.1,2.6,0.8,4.4,2,5.6c1.3,1.2,2.7,1.8,4.5,1.8c1.1,0,2.2-0.2,3.1-0.5s1.9-0.8,2.8-1.5l1.7,2.3
		c-1,0.8-2.2,1.5-3.5,1.9c-1.3,0.5-2.7,0.7-4.1,0.7c-2.2,0-4-0.5-5.5-1.5s-2.7-2.3-3.5-4.1c-0.8-1.7-1.2-3.7-1.2-6
		c0-2.2,0.4-4.2,1.2-6c0.8-1.7,1.9-3.1,3.4-4.1s3.2-1.5,5.1-1.5c2.8,0,5,1,6.6,2.9s2.4,4.6,2.4,8c0,0.4,0,0.7,0,1.1
		c0,0.3,0,0.6-0.1,0.9L250.3,140.9L250.3,140.9z M256.3,131c-1.6,0-3,0.6-4.1,1.7c-1.1,1.2-1.7,3-1.9,5.4h11.6
		c0-2.4-0.6-4.2-1.6-5.4C259.3,131.6,257.9,131,256.3,131z"/>
	<path class="st2" d="M276.3,131.5c0.8-1.1,1.7-1.9,2.8-2.5c1.1-0.6,2.2-0.9,3.5-0.9c2,0,3.6,0.5,4.8,1.4s2.1,2.3,2.7,4
		s0.8,3.8,0.8,6.1c0,2.2-0.3,4.2-1,6c-0.7,1.7-1.7,3.1-3,4.1s-2.9,1.5-4.8,1.5c-2.6,0-4.6-0.9-6-2.8l-0.3,2.3h-3.1v-31.1l3.5-0.4
		v12.3H276.3z M281.3,148.4c1.9,0,3.3-0.7,4.3-2.1c1-1.4,1.5-3.6,1.5-6.6c0-5.8-1.7-8.7-5.2-8.7c-1.2,0-2.3,0.4-3.3,1.1
		c-0.9,0.7-1.7,1.6-2.3,2.5v11c0.6,0.9,1.3,1.6,2.2,2.1C279.3,148.1,280.3,148.4,281.3,148.4z"/>
	<path class="st2" d="M306.4,128.1c3.1,0,5.5,1,7.1,3.1s2.4,4.9,2.4,8.4c0,2.3-0.4,4.3-1.1,6s-1.8,3.1-3.2,4.1
		c-1.4,1-3.2,1.5-5.2,1.5c-3.1,0-5.5-1.1-7.1-3.2c-1.6-2.1-2.4-4.9-2.4-8.4c0-2.3,0.4-4.3,1.1-6s1.8-3.1,3.2-4.1
		C302.6,128.6,304.3,128.1,306.4,128.1z M306.4,131c-1.9,0-3.3,0.7-4.3,2.1c-1,1.4-1.5,3.6-1.5,6.6c0,2.9,0.5,5.1,1.4,6.5
		c1,1.4,2.4,2.1,4.3,2.1s3.3-0.7,4.3-2.1s1.4-3.6,1.4-6.5s-0.5-5.1-1.4-6.5C309.7,131.7,308.3,131,306.4,131z"/>
	<path class="st2" d="M331.7,128.1c3.1,0,5.5,1,7.1,3.1s2.4,4.9,2.4,8.4c0,2.3-0.4,4.3-1.1,6s-1.8,3.1-3.2,4.1
		c-1.4,1-3.2,1.5-5.2,1.5c-3.1,0-5.5-1.1-7.1-3.2c-1.6-2.1-2.4-4.9-2.4-8.4c0-2.3,0.4-4.3,1.1-6s1.8-3.1,3.2-4.1
		C327.8,128.6,329.6,128.1,331.7,128.1z M331.7,131c-1.9,0-3.3,0.7-4.3,2.1c-1,1.4-1.5,3.6-1.5,6.6c0,2.9,0.5,5.1,1.4,6.5
		c1,1.4,2.4,2.1,4.3,2.1s3.3-0.7,4.3-2.1s1.4-3.6,1.4-6.5s-0.5-5.1-1.4-6.5C335,131.7,333.6,131,331.7,131z"/>
	<path class="st2" d="M352.2,119.2v31.5h-3.5v-31.1L352.2,119.2z M367,128.6l-10,10l11.1,12.2h-4.7l-10.9-12.1l9.8-10.1L367,128.6
		L367,128.6z"/>
</g>
</svg>
