<?xml version="1.0" encoding="utf-8"?>
<!-- Generator: Adobe Illustrator 24.3.0, SVG Export Plug-In . SVG Version: 6.00 Build 0)  -->
<svg version="1.1" id="Layer_1" xmlns="http://www.w3.org/2000/svg" xmlns:xlink="http://www.w3.org/1999/xlink" x="0px" y="0px"
	 viewBox="0 0 500 500" style="enable-background:new 0 0 500 500;" xml:space="preserve">
<style type="text/css">
	.st0{fill:#5F00C4;}
	.st1{fill:#FFFFFF;}
</style>
<rect class="st0" width="500" height="500"/>
<circle class="st0" cx="250" cy="250" r="250"/>
<path class="st1" d="M255.1,439.53c7.65-8.29,33.17-38.81,40.66-83.89c1.75-9.35,10.27-74.98-85.08-118.13
	c-8.17-3.7-14.93-7.79-23.47-12.97c-3.03-1.84-6.25-3.78-9.77-5.87c-15.96-9.43-31.19-34.29-36.33-88.23
	c-3.31-30.94,0.02-51.06,0.02-51.06c-4.67,2-26.5,25.6-26.5,25.6c-12.12,15.15-19.37,25.87-27.54,43.47
	c-18.95,40.83-32.19,92.07-27.39,131.03c0.23,1.9,0.57,3.54,0.84,4.87c0.13,0.64,0.29,1.44,0.33,1.76
	c4.57,38.14,17.87,59.78,36.43,80.53c12.84,14.36,29.7,25.54,48.76,32.33c57.02,20.31,73.25,33.49,76.72,36.83
	c0,0,15.22,10.65,17.89,18.21C240.67,454,250.94,444.29,255.1,439.53z"/>
<path class="st1" d="M122.73,125c-23.56,29.44-48.89,105.67-43.17,152.04c0.28,2.25,0.91,4.44,1.18,6.69
	c3.99,33.33,15.24,51.42,31.47,69.57c10.96,12.26,25.07,21.3,40.57,26.82c80.91,28.82,87.63,45.84,87.63,45.84
	c6.5-7.04,29.2-34.54,35.67-73.82c0,0,13.25-57.09-73.63-96.41c-12.33-5.58-21.27-11.62-35.18-19.84
	C144.5,222.44,124.06,180.56,122.73,125z"/>
<path class="st0" d="M122.67,125C99.11,154.44,73.78,230.67,79.5,277.04c0.28,2.25,0.91,4.44,1.18,6.69
	c3.99,33.33,15.24,51.42,31.47,69.57c10.96,12.26,25.07,21.3,40.57,26.82c80.91,28.82,87.63,45.84,87.63,45.84
	c6.5-7.04,29.2-34.54,35.67-73.82c0,0,13.25-57.09-73.63-96.41c-12.33-5.58-21.27-11.62-35.18-19.84
	C144.44,222.44,124,180.56,122.67,125z"/>
<path class="st1" d="M426.67,232.67c7.33,18.44,10.71,29.72,12.22,46.34c1.37,15.1,0.38,32.9-5.97,51.83
	c-4.79,14.38-19.83,50-55.6,69.18c-12.95,6.96-22.46,8.44-36.85,10.68c-9.15,1.43-20.54,3.2-37.77,7.04
	c-14.48,3.17-28.62,6.88-43.33,11.38l-28.88,8.84l3.14-30.04c3.06-29.28,13.36-53.22,30.62-71.14c7.25-7.57,12.07-10.24,29.99-20.16
	c5.55-3.07,14.76-6.89,23.59-12.12c44.17-26.17,49.27-30.56,56.64-38.7c9.41-10.36,15.53-21.58,20.19-30.47
	c0,0,12.67-23.78,13.56-34.67C408.22,200.67,422.72,222.74,426.67,232.67z"/>
<path class="st0" d="M253.52,410c1.78-17.06,7.36-40.88,25.14-59.35c6.24-6.51,18.97-15.17,41.15-23.68
	c5.51-2.12,10.81-4.75,15.88-7.78c38.39-22.95,44.55-29.96,53.61-39.97c11.13-12.25,17.4-24.55,21.07-32.7
	c3.34,7.69,16.35,39.89,3.58,77.96c-2.85,8.55-14.99,41.24-46.09,57.91c-16.74,8.99-25.46,6-69.52,15.83
	C279.15,402.42,263.58,406.93,253.52,410z"/>
<g>
	<path class="st1" d="M248.36,413.34l-0.03-1.65c-0.01-0.49,0.02-0.95,0.03-1.41c0.04-0.93,0.11-1.84,0.24-2.73
		c0.21-1.8,0.57-3.56,1.03-5.29c0.94-3.46,2.28-6.82,4.03-9.98c3.49-6.32,8.51-11.86,14.37-16c1.46-1.05,3-1.96,4.53-2.87
		c1.57-0.83,3.14-1.65,4.75-2.34c3.21-1.41,6.48-2.57,9.78-3.41c1.63-0.49,3.3-0.8,4.94-1.18l4.62-0.86
		c3.07-0.56,6.13-1.06,9.19-1.51c6.1-0.94,12.16-1.72,18.11-2.79c2.97-0.55,5.94-1.09,8.82-1.9c2.86-0.84,5.68-1.81,8.44-2.96
		c5.52-2.28,10.8-5.21,15.63-8.84c2.42-1.81,4.71-3.8,6.83-5.97c2.11-2.18,4.1-4.52,5.68-7.15c-1.25,2.81-2.97,5.41-4.83,7.88
		c-1.88,2.47-3.97,4.79-6.22,6.95c-4.5,4.33-9.66,8.01-15.16,11.08c-2.75,1.54-5.6,2.91-8.51,4.14c-2.89,1.28-5.78,2.54-8.71,3.66
		c-5.85,2.27-11.72,4.3-17.53,6.28l-8.65,2.97l-4.26,1.51c-1.28,0.54-2.6,0.99-3.83,1.6c-5,2.29-9.38,5.39-13.07,8.9
		c-3.72,3.5-6.81,7.42-9.45,11.72c-1.33,2.14-2.53,4.39-3.68,6.69c-0.57,1.15-1.1,2.33-1.65,3.5l-0.77,1.75l-0.37,0.85l-0.18,0.39
		c-0.03,0.06-0.06,0.14-0.09,0.17c-0.03,0.03-0.06,0.13-0.08,0.06L248.36,413.34z"/>
</g>
<g>
	<path class="st1" d="M229.03,423.88c0.03-0.07,0.11-0.44,0.16-0.7l0.17-0.87l0.33-1.83c0.21-1.24,0.39-2.5,0.56-3.76
		c0.33-2.54,0.59-5.1,0.76-7.68c0.36-5.15,0.4-10.33,0.12-15.47c-0.58-10.27-2.48-20.42-6.25-29.72c-3.71-9.32-9.4-17.7-16.91-24.37
		c-3.76-3.33-7.95-6.23-12.47-8.67c-1.13-0.61-2.28-1.19-3.45-1.75c-1.18-0.54-2.32-1.07-3.67-1.65c-2.6-1.13-5.2-2.29-7.78-3.49
		c-10.32-4.79-20.5-10.15-30.02-16.64c-9.5-6.48-18.38-14.19-25.32-23.52c-6.96-9.28-11.67-20.22-13.41-31.5
		c-1.8-11.29-0.93-22.71,1.48-33.61c-1.48,11.07-1.33,22.38,1.32,33.04c2.6,10.67,7.89,20.44,15.05,28.48
		c7.15,8.08,15.98,14.52,25.41,19.84c9.46,5.33,19.54,9.6,29.85,13.36c2.58,0.94,5.18,1.84,7.79,2.73c1.26,0.41,2.71,0.94,4.12,1.44
		c1.4,0.53,2.81,1.08,4.19,1.69c5.55,2.4,10.91,5.43,15.86,9.11c9.93,7.34,18.04,17.3,23.57,28.31
		c5.61,11.02,8.89,22.93,10.62,34.86c0.85,5.98,1.33,11.98,1.43,18c0.06,3.01,0.02,6.02-0.11,9.06c-0.07,1.52-0.15,3.04-0.28,4.58
		l-0.21,2.33l-0.13,1.2c-0.05,0.44-0.09,0.75-0.18,1.37L229.03,423.88z"/>
</g>
</svg>
